<svg width="56" height="56" viewBox="0 0 56 56" fill="none" xmlns="http://www.w3.org/2000/svg">
<path d="M37.5766 11.9942C37.0233 11.4406 36.3663 11.0015 35.6433 10.7019C34.9202 10.4023 34.1452 10.248 33.3625 10.248C32.5798 10.248 31.8047 10.4023 31.0817 10.7019C30.3586 11.0015 29.7016 11.4406 29.1483 11.9942L28 13.1425L26.8516 11.9942C25.734 10.8765 24.2181 10.2486 22.6375 10.2486C21.0568 10.2486 19.541 10.8765 18.4233 11.9942C17.3056 13.1119 16.6777 14.6277 16.6777 16.2084C16.6777 17.789 17.3056 19.3049 18.4233 20.4225L19.5716 21.5709L28 29.9992L36.4283 21.5709L37.5766 20.4225C38.1302 19.8692 38.5693 19.2122 38.869 18.4892C39.1686 17.7661 39.3228 16.9911 39.3228 16.2084C39.3228 15.4257 39.1686 14.6506 38.869 13.9276C38.5693 13.2045 38.1302 12.5475 37.5766 11.9942Z" fill="#FD525C" stroke="#173EA5" stroke-width="1.5" stroke-linecap="round" stroke-linejoin="round"/>
<path d="M5.808 35.66V36.776H2.268V39.236H5.028V40.352H2.268V44H0.9V35.66H5.808ZM6.61978 40.664C6.61978 40 6.75578 39.412 7.02778 38.9C7.30778 38.388 7.68378 37.992 8.15578 37.712C8.63578 37.424 9.16378 37.28 9.73978 37.28C10.2598 37.28 10.7118 37.384 11.0958 37.592C11.4878 37.792 11.7998 38.044 12.0318 38.348V37.388H13.4118V44H12.0318V43.016C11.7998 43.328 11.4838 43.588 11.0838 43.796C10.6838 44.004 10.2278 44.108 9.71578 44.108C9.14778 44.108 8.62778 43.964 8.15578 43.676C7.68378 43.38 7.30778 42.972 7.02778 42.452C6.75578 41.924 6.61978 41.328 6.61978 40.664ZM12.0318 40.688C12.0318 40.232 11.9358 39.836 11.7438 39.5C11.5598 39.164 11.3158 38.908 11.0118 38.732C10.7078 38.556 10.3798 38.468 10.0278 38.468C9.67578 38.468 9.34778 38.556 9.04378 38.732C8.73978 38.9 8.49178 39.152 8.29978 39.488C8.11578 39.816 8.02378 40.208 8.02378 40.664C8.02378 41.12 8.11578 41.52 8.29978 41.864C8.49178 42.208 8.73978 42.472 9.04378 42.656C9.35578 42.832 9.68378 42.92 10.0278 42.92C10.3798 42.92 10.7078 42.832 11.0118 42.656C11.3158 42.48 11.5598 42.224 11.7438 41.888C11.9358 41.544 12.0318 41.144 12.0318 40.688ZM17.7646 42.776L19.6366 37.388H21.0886L18.5686 44H16.9366L14.4286 37.388H15.8926L17.7646 42.776ZM24.9907 44.108C24.3667 44.108 23.8027 43.968 23.2987 43.688C22.7947 43.4 22.3987 43 22.1107 42.488C21.8227 41.968 21.6787 41.368 21.6787 40.688C21.6787 40.016 21.8267 39.42 22.1227 38.9C22.4187 38.38 22.8227 37.98 23.3347 37.7C23.8467 37.42 24.4187 37.28 25.0507 37.28C25.6827 37.28 26.2547 37.42 26.7667 37.7C27.2787 37.98 27.6827 38.38 27.9787 38.9C28.2747 39.42 28.4227 40.016 28.4227 40.688C28.4227 41.36 28.2707 41.956 27.9667 42.476C27.6627 42.996 27.2467 43.4 26.7187 43.688C26.1987 43.968 25.6227 44.108 24.9907 44.108ZM24.9907 42.92C25.3427 42.92 25.6707 42.836 25.9747 42.668C26.2867 42.5 26.5387 42.248 26.7307 41.912C26.9227 41.576 27.0187 41.168 27.0187 40.688C27.0187 40.208 26.9267 39.804 26.7427 39.476C26.5587 39.14 26.3147 38.888 26.0107 38.72C25.7067 38.552 25.3787 38.468 25.0267 38.468C24.6747 38.468 24.3467 38.552 24.0427 38.72C23.7467 38.888 23.5107 39.14 23.3347 39.476C23.1587 39.804 23.0707 40.208 23.0707 40.688C23.0707 41.4 23.2507 41.952 23.6107 42.344C23.9787 42.728 24.4387 42.92 24.9907 42.92ZM31.143 38.348C31.343 38.012 31.607 37.752 31.935 37.568C32.271 37.376 32.667 37.28 33.123 37.28V38.696H32.775C32.239 38.696 31.831 38.832 31.551 39.104C31.279 39.376 31.143 39.848 31.143 40.52V44H29.775V37.388H31.143V38.348ZM35.0765 36.512C34.8285 36.512 34.6205 36.428 34.4525 36.26C34.2845 36.092 34.2005 35.884 34.2005 35.636C34.2005 35.388 34.2845 35.18 34.4525 35.012C34.6205 34.844 34.8285 34.76 35.0765 34.76C35.3165 34.76 35.5205 34.844 35.6885 35.012C35.8565 35.18 35.9405 35.388 35.9405 35.636C35.9405 35.884 35.8565 36.092 35.6885 36.26C35.5205 36.428 35.3165 36.512 35.0765 36.512ZM35.7485 37.388V44H34.3805V37.388H35.7485ZM39.1405 38.504V42.164C39.1405 42.412 39.1965 42.592 39.3085 42.704C39.4285 42.808 39.6285 42.86 39.9085 42.86H40.7485V44H39.6685C39.0525 44 38.5805 43.856 38.2525 43.568C37.9245 43.28 37.7605 42.812 37.7605 42.164V38.504H36.9805V37.388H37.7605V35.744H39.1405V37.388H40.7485V38.504H39.1405ZM44.8774 44.108C44.2534 44.108 43.6894 43.968 43.1854 43.688C42.6814 43.4 42.2854 43 41.9974 42.488C41.7094 41.968 41.5654 41.368 41.5654 40.688C41.5654 40.016 41.7134 39.42 42.0094 38.9C42.3054 38.38 42.7094 37.98 43.2214 37.7C43.7334 37.42 44.3054 37.28 44.9374 37.28C45.5694 37.28 46.1414 37.42 46.6534 37.7C47.1654 37.98 47.5694 38.38 47.8654 38.9C48.1614 39.42 48.3094 40.016 48.3094 40.688C48.3094 41.36 48.1574 41.956 47.8534 42.476C47.5494 42.996 47.1334 43.4 46.6054 43.688C46.0854 43.968 45.5094 44.108 44.8774 44.108ZM44.8774 42.92C45.2294 42.92 45.5574 42.836 45.8614 42.668C46.1734 42.5 46.4254 42.248 46.6174 41.912C46.8094 41.576 46.9054 41.168 46.9054 40.688C46.9054 40.208 46.8134 39.804 46.6294 39.476C46.4454 39.14 46.2014 38.888 45.8974 38.72C45.5934 38.552 45.2654 38.468 44.9134 38.468C44.5614 38.468 44.2334 38.552 43.9294 38.72C43.6334 38.888 43.3974 39.14 43.2214 39.476C43.0454 39.804 42.9574 40.208 42.9574 40.688C42.9574 41.4 43.1374 41.952 43.4974 42.344C43.8654 42.728 44.3254 42.92 44.8774 42.92ZM52.0617 44.108C51.5417 44.108 51.0737 44.016 50.6577 43.832C50.2497 43.64 49.9257 43.384 49.6857 43.064C49.4457 42.736 49.3177 42.372 49.3017 41.972H50.7177C50.7417 42.252 50.8737 42.488 51.1137 42.68C51.3617 42.864 51.6697 42.956 52.0377 42.956C52.4217 42.956 52.7177 42.884 52.9257 42.74C53.1417 42.588 53.2497 42.396 53.2497 42.164C53.2497 41.916 53.1297 41.732 52.8897 41.612C52.6577 41.492 52.2857 41.36 51.7737 41.216C51.2777 41.08 50.8737 40.948 50.5617 40.82C50.2497 40.692 49.9777 40.496 49.7457 40.232C49.5217 39.968 49.4097 39.62 49.4097 39.188C49.4097 38.836 49.5137 38.516 49.7217 38.228C49.9297 37.932 50.2257 37.7 50.6097 37.532C51.0017 37.364 51.4497 37.28 51.9537 37.28C52.7057 37.28 53.3097 37.472 53.7657 37.856C54.2297 38.232 54.4777 38.748 54.5097 39.404H53.1417C53.1177 39.108 52.9977 38.872 52.7817 38.696C52.5657 38.52 52.2737 38.432 51.9057 38.432C51.5457 38.432 51.2697 38.5 51.0777 38.636C50.8857 38.772 50.7897 38.952 50.7897 39.176C50.7897 39.352 50.8537 39.5 50.9817 39.62C51.1097 39.74 51.2657 39.836 51.4497 39.908C51.6337 39.972 51.9057 40.056 52.2657 40.16C52.7457 40.288 53.1377 40.42 53.4417 40.556C53.7537 40.684 54.0217 40.876 54.2457 41.132C54.4697 41.388 54.5857 41.728 54.5937 42.152C54.5937 42.528 54.4897 42.864 54.2817 43.16C54.0737 43.456 53.7777 43.688 53.3937 43.856C53.0177 44.024 52.5737 44.108 52.0617 44.108Z" fill="#173EA5"/>
</svg>
