<svg width="56" height="56" viewBox="0 0 56 56" fill="none" xmlns="http://www.w3.org/2000/svg">
<path d="M35.4246 20.5754C39.5251 24.6759 39.5251 31.3241 35.4246 35.4246C31.3241 39.5251 24.6759 39.5251 20.5754 35.4246C16.4749 31.3241 16.4749 24.6759 20.5754 20.5754C24.6759 16.4749 31.3241 16.4749 35.4246 20.5754" stroke="#808080" stroke-width="1.5" stroke-linecap="round" stroke-linejoin="round"/>
<path d="M30.3212 23.7112C31.6028 24.9929 31.6028 27.0708 30.3212 28.3524C29.0396 29.6341 26.9616 29.6341 25.68 28.3524C24.3983 27.0708 24.3983 24.9929 25.68 23.7112C26.9616 22.4296 29.0396 22.4296 30.3212 23.7112" stroke="#808080" stroke-width="1.5" stroke-linecap="round" stroke-linejoin="round"/>
<path d="M34.6581 36.1177C32.984 34.3548 30.6226 33.25 28 33.25C25.3773 33.25 23.016 34.3548 21.3418 36.1188" stroke="#808080" stroke-width="1.5" stroke-linecap="round" stroke-linejoin="round"/>
</svg>
