<svg width="56" height="56" viewBox="0 0 56 56" fill="none" xmlns="http://www.w3.org/2000/svg">
<path d="M28 31.9168C18.7917 23.7918 19.3333 21.6252 18.25 17.8335H37.75C37.75 22.7085 33.4167 28.6668 28 31.9168Z" fill="white"/>
<path d="M37.75 17.8335H18.25C18.4306 14.9446 20.4167 8.62516 28 8.0835C35.0417 8.0835 37.5694 14.5835 37.75 17.8335Z" fill="#CD3131"/>
<circle cx="28" cy="17.8335" r="3.25" fill="white"/>
<path d="M37.75 17.8335C37.75 25.4168 28 31.9168 28 31.9168C28 31.9168 18.25 25.4168 18.25 17.8335C18.25 15.2476 19.2772 12.7677 21.1057 10.9392C22.9342 9.11073 25.4141 8.0835 28 8.0835C30.5859 8.0835 33.0658 9.11073 34.8943 10.9392C36.7228 12.7677 37.75 15.2476 37.75 17.8335Z" stroke="#173EA5" stroke-width="1.5" stroke-linecap="round" stroke-linejoin="round"/>
<path d="M28 21.0835C28.862 21.0835 29.6886 20.7411 30.2981 20.1316C30.9076 19.5221 31.25 18.6954 31.25 17.8335C31.25 16.9715 30.9076 16.1449 30.2981 15.5354C29.6886 14.9259 28.862 14.5835 28 14.5835C27.138 14.5835 26.3114 14.9259 25.7019 15.5354C25.0924 16.1449 24.75 16.9715 24.75 17.8335C24.75 18.6954 25.0924 19.5221 25.7019 20.1316C26.3114 20.7411 27.138 21.0835 28 21.0835Z" fill="white" stroke="#173EA5" stroke-width="1.625" stroke-linecap="round" stroke-linejoin="round"/>
<path d="M18.25 17.8335L25.075 17.8335M30.925 17.8335L37.75 17.8335" stroke="#173EA5" stroke-width="1.625"/>
<path d="M9.232 44L7.312 40.664H6.268V44H4.9V35.66H7.78C8.42 35.66 8.96 35.772 9.4 35.996C9.848 36.22 10.18 36.52 10.396 36.896C10.62 37.272 10.732 37.692 10.732 38.156C10.732 38.7 10.572 39.196 10.252 39.644C9.94 40.084 9.456 40.384 8.8 40.544L10.864 44H9.232ZM6.268 39.572H7.78C8.292 39.572 8.676 39.444 8.932 39.188C9.196 38.932 9.328 38.588 9.328 38.156C9.328 37.724 9.2 37.388 8.944 37.148C8.688 36.9 8.3 36.776 7.78 36.776H6.268V39.572ZM18.542 40.532C18.542 40.78 18.526 41.004 18.494 41.204H13.442C13.482 41.732 13.678 42.156 14.03 42.476C14.382 42.796 14.814 42.956 15.326 42.956C16.062 42.956 16.582 42.648 16.886 42.032H18.362C18.162 42.64 17.798 43.14 17.27 43.532C16.75 43.916 16.102 44.108 15.326 44.108C14.694 44.108 14.126 43.968 13.622 43.688C13.126 43.4 12.734 43 12.446 42.488C12.166 41.968 12.026 41.368 12.026 40.688C12.026 40.008 12.162 39.412 12.434 38.9C12.714 38.38 13.102 37.98 13.598 37.7C14.102 37.42 14.678 37.28 15.326 37.28C15.95 37.28 16.506 37.416 16.994 37.688C17.482 37.96 17.862 38.344 18.134 38.84C18.406 39.328 18.542 39.892 18.542 40.532ZM17.114 40.1C17.106 39.596 16.926 39.192 16.574 38.888C16.222 38.584 15.786 38.432 15.266 38.432C14.794 38.432 14.39 38.584 14.054 38.888C13.718 39.184 13.518 39.588 13.454 40.1H17.114ZM22.5523 37.28C23.0643 37.28 23.5163 37.384 23.9083 37.592C24.3083 37.792 24.6203 38.044 24.8443 38.348V37.388H26.2243V44.108C26.2243 44.716 26.0963 45.256 25.8403 45.728C25.5843 46.208 25.2123 46.584 24.7243 46.856C24.2443 47.128 23.6683 47.264 22.9963 47.264C22.1003 47.264 21.3563 47.052 20.7643 46.628C20.1723 46.212 19.8363 45.644 19.7563 44.924H21.1123C21.2163 45.268 21.4363 45.544 21.7723 45.752C22.1163 45.968 22.5243 46.076 22.9963 46.076C23.5483 46.076 23.9923 45.908 24.3283 45.572C24.6723 45.236 24.8443 44.748 24.8443 44.108V43.004C24.6123 43.316 24.2963 43.58 23.8963 43.796C23.5043 44.004 23.0563 44.108 22.5523 44.108C21.9763 44.108 21.4483 43.964 20.9683 43.676C20.4963 43.38 20.1203 42.972 19.8403 42.452C19.5683 41.924 19.4323 41.328 19.4323 40.664C19.4323 40 19.5683 39.412 19.8403 38.9C20.1203 38.388 20.4963 37.992 20.9683 37.712C21.4483 37.424 21.9763 37.28 22.5523 37.28ZM24.8443 40.688C24.8443 40.232 24.7483 39.836 24.5563 39.5C24.3723 39.164 24.1283 38.908 23.8243 38.732C23.5203 38.556 23.1923 38.468 22.8403 38.468C22.4883 38.468 22.1603 38.556 21.8563 38.732C21.5523 38.9 21.3043 39.152 21.1123 39.488C20.9283 39.816 20.8363 40.208 20.8363 40.664C20.8363 41.12 20.9283 41.52 21.1123 41.864C21.3043 42.208 21.5523 42.472 21.8563 42.656C22.1683 42.832 22.4963 42.92 22.8403 42.92C23.1923 42.92 23.5203 42.832 23.8243 42.656C24.1283 42.48 24.3723 42.224 24.5563 41.888C24.7483 41.544 24.8443 41.144 24.8443 40.688ZM28.7171 36.512C28.4691 36.512 28.2611 36.428 28.0931 36.26C27.9251 36.092 27.8411 35.884 27.8411 35.636C27.8411 35.388 27.9251 35.18 28.0931 35.012C28.2611 34.844 28.4691 34.76 28.7171 34.76C28.9571 34.76 29.1611 34.844 29.3291 35.012C29.4971 35.18 29.5811 35.388 29.5811 35.636C29.5811 35.884 29.4971 36.092 29.3291 36.26C29.1611 36.428 28.9571 36.512 28.7171 36.512ZM29.3891 37.388V44H28.0211V37.388H29.3891ZM34.0532 44.108C33.4292 44.108 32.8652 43.968 32.3612 43.688C31.8572 43.4 31.4612 43 31.1732 42.488C30.8852 41.968 30.7412 41.368 30.7412 40.688C30.7412 40.016 30.8892 39.42 31.1852 38.9C31.4812 38.38 31.8852 37.98 32.3972 37.7C32.9092 37.42 33.4812 37.28 34.1132 37.28C34.7452 37.28 35.3172 37.42 35.8292 37.7C36.3412 37.98 36.7452 38.38 37.0412 38.9C37.3372 39.42 37.4852 40.016 37.4852 40.688C37.4852 41.36 37.3332 41.956 37.0292 42.476C36.7252 42.996 36.3092 43.4 35.7812 43.688C35.2612 43.968 34.6852 44.108 34.0532 44.108ZM34.0532 42.92C34.4052 42.92 34.7332 42.836 35.0372 42.668C35.3492 42.5 35.6012 42.248 35.7932 41.912C35.9852 41.576 36.0812 41.168 36.0812 40.688C36.0812 40.208 35.9892 39.804 35.8052 39.476C35.6212 39.14 35.3772 38.888 35.0732 38.72C34.7692 38.552 34.4412 38.468 34.0892 38.468C33.7372 38.468 33.4092 38.552 33.1052 38.72C32.8092 38.888 32.5732 39.14 32.3972 39.476C32.2212 39.804 32.1332 40.208 32.1332 40.688C32.1332 41.4 32.3132 41.952 32.6732 42.344C33.0412 42.728 33.5012 42.92 34.0532 42.92ZM32.1572 36.596C32.2212 36.132 32.3732 35.784 32.6132 35.552C32.8532 35.312 33.1532 35.192 33.5132 35.192C33.6652 35.192 33.7972 35.216 33.9092 35.264C34.0212 35.312 34.1572 35.384 34.3172 35.48C34.4372 35.56 34.5372 35.62 34.6172 35.66C34.7052 35.7 34.8012 35.72 34.9052 35.72C35.0412 35.72 35.1532 35.68 35.2412 35.6C35.3372 35.512 35.3972 35.384 35.4212 35.216H36.1892C36.1252 35.68 35.9732 36.032 35.7332 36.272C35.4932 36.504 35.1932 36.62 34.8332 36.62C34.6812 36.62 34.5452 36.596 34.4252 36.548C34.3052 36.492 34.1732 36.416 34.0292 36.32C33.8852 36.232 33.7732 36.172 33.6932 36.14C33.6212 36.1 33.5372 36.08 33.4412 36.08C33.3052 36.08 33.1892 36.124 33.0932 36.212C33.0052 36.3 32.9492 36.428 32.9252 36.596H32.1572ZM44.8975 40.532C44.8975 40.78 44.8815 41.004 44.8495 41.204H39.7975C39.8375 41.732 40.0335 42.156 40.3855 42.476C40.7375 42.796 41.1695 42.956 41.6815 42.956C42.4175 42.956 42.9375 42.648 43.2415 42.032H44.7175C44.5175 42.64 44.1535 43.14 43.6255 43.532C43.1055 43.916 42.4575 44.108 41.6815 44.108C41.0495 44.108 40.4815 43.968 39.9775 43.688C39.4815 43.4 39.0895 43 38.8015 42.488C38.5215 41.968 38.3815 41.368 38.3815 40.688C38.3815 40.008 38.5175 39.412 38.7895 38.9C39.0695 38.38 39.4575 37.98 39.9535 37.7C40.4575 37.42 41.0335 37.28 41.6815 37.28C42.3055 37.28 42.8615 37.416 43.3495 37.688C43.8375 37.96 44.2175 38.344 44.4895 38.84C44.7615 39.328 44.8975 39.892 44.8975 40.532ZM43.4695 40.1C43.4615 39.596 43.2815 39.192 42.9295 38.888C42.5775 38.584 42.1415 38.432 41.6215 38.432C41.1495 38.432 40.7455 38.584 40.4095 38.888C40.0735 39.184 39.8735 39.588 39.8095 40.1H43.4695ZM48.6438 44.108C48.1238 44.108 47.6558 44.016 47.2398 43.832C46.8318 43.64 46.5078 43.384 46.2678 43.064C46.0278 42.736 45.8998 42.372 45.8838 41.972H47.2998C47.3238 42.252 47.4558 42.488 47.6958 42.68C47.9438 42.864 48.2518 42.956 48.6198 42.956C49.0038 42.956 49.2998 42.884 49.5078 42.74C49.7238 42.588 49.8318 42.396 49.8318 42.164C49.8318 41.916 49.7118 41.732 49.4718 41.612C49.2398 41.492 48.8678 41.36 48.3558 41.216C47.8598 41.08 47.4558 40.948 47.1438 40.82C46.8318 40.692 46.5598 40.496 46.3278 40.232C46.1038 39.968 45.9918 39.62 45.9918 39.188C45.9918 38.836 46.0958 38.516 46.3038 38.228C46.5118 37.932 46.8078 37.7 47.1918 37.532C47.5838 37.364 48.0318 37.28 48.5358 37.28C49.2878 37.28 49.8918 37.472 50.3478 37.856C50.8118 38.232 51.0598 38.748 51.0918 39.404H49.7238C49.6998 39.108 49.5798 38.872 49.3638 38.696C49.1478 38.52 48.8558 38.432 48.4878 38.432C48.1278 38.432 47.8518 38.5 47.6598 38.636C47.4678 38.772 47.3718 38.952 47.3718 39.176C47.3718 39.352 47.4358 39.5 47.5638 39.62C47.6918 39.74 47.8478 39.836 48.0318 39.908C48.2158 39.972 48.4878 40.056 48.8478 40.16C49.3278 40.288 49.7198 40.42 50.0238 40.556C50.3358 40.684 50.6038 40.876 50.8278 41.132C51.0518 41.388 51.1678 41.728 51.1758 42.152C51.1758 42.528 51.0718 42.864 50.8638 43.16C50.6558 43.456 50.3598 43.688 49.9758 43.856C49.5998 44.024 49.1558 44.108 48.6438 44.108Z" fill="#173EA5"/>
</svg>
