<svg width="56" height="56" viewBox="0 0 56 56" fill="none" xmlns="http://www.w3.org/2000/svg">
<rect x="21.5713" y="26.4287" width="12.8571" height="4.28571" rx="2.14286" fill="#CD3131"/>
<path d="M35.9549 12.045C40.3483 16.4384 40.3483 23.5616 35.9549 27.9549C31.5615 32.3483 24.4384 32.3483 20.045 27.9549C15.6517 23.5615 15.6517 16.4384 20.045 12.045C24.4384 7.65165 31.5616 7.65165 35.9549 12.045" stroke="#173EA5" stroke-width="1.5" stroke-linecap="round" stroke-linejoin="round"/>
<path fill-rule="evenodd" clip-rule="evenodd" d="M30.487 15.4049C31.8602 16.7781 31.8602 19.0044 30.487 20.3776C29.1138 21.7508 26.8874 21.7508 25.5143 20.3776C24.1411 19.0044 24.1411 16.7781 25.5143 15.4049C26.8874 14.0317 29.1138 14.0317 30.487 15.4049Z" fill="#173EA5"/>
<path d="M30.487 15.4049C31.8602 16.7781 31.8602 19.0044 30.487 20.3776C29.1138 21.7508 26.8874 21.7508 25.5143 20.3776C24.1411 19.0044 24.1411 16.7781 25.5143 15.4049C26.8874 14.0317 29.1138 14.0317 30.487 15.4049" stroke="#173EA5" stroke-width="1.5" stroke-linecap="round" stroke-linejoin="round"/>
<path d="M35.5 28.6988C33.7062 26.81 30.81 25.625 28 25.625C25.19 25.625 22.66 26.8088 20.8662 28.6988" stroke="#173EA5" stroke-width="1.5" stroke-linecap="round" stroke-linejoin="round"/>
<path d="M9.444 41.812C9.444 40.996 9.632 40.264 10.008 39.616C10.392 38.968 10.908 38.464 11.556 38.104C12.212 37.736 12.928 37.552 13.704 37.552C14.592 37.552 15.38 37.772 16.068 38.212C16.764 38.644 17.268 39.26 17.58 40.06H15.936C15.72 39.62 15.42 39.292 15.036 39.076C14.652 38.86 14.208 38.752 13.704 38.752C13.152 38.752 12.66 38.876 12.228 39.124C11.796 39.372 11.456 39.728 11.208 40.192C10.968 40.656 10.848 41.196 10.848 41.812C10.848 42.428 10.968 42.968 11.208 43.432C11.456 43.896 11.796 44.256 12.228 44.512C12.66 44.76 13.152 44.884 13.704 44.884C14.208 44.884 14.652 44.776 15.036 44.56C15.42 44.344 15.72 44.016 15.936 43.576H17.58C17.268 44.376 16.764 44.992 16.068 45.424C15.38 45.856 14.592 46.072 13.704 46.072C12.92 46.072 12.204 45.892 11.556 45.532C10.908 45.164 10.392 44.656 10.008 44.008C9.632 43.36 9.444 42.628 9.444 41.812ZM22.0493 46.108C21.4253 46.108 20.8613 45.968 20.3573 45.688C19.8533 45.4 19.4573 45 19.1693 44.488C18.8813 43.968 18.7373 43.368 18.7373 42.688C18.7373 42.016 18.8853 41.42 19.1813 40.9C19.4773 40.38 19.8813 39.98 20.3933 39.7C20.9053 39.42 21.4773 39.28 22.1093 39.28C22.7413 39.28 23.3133 39.42 23.8253 39.7C24.3373 39.98 24.7413 40.38 25.0373 40.9C25.3333 41.42 25.4813 42.016 25.4813 42.688C25.4813 43.36 25.3293 43.956 25.0253 44.476C24.7213 44.996 24.3053 45.4 23.7773 45.688C23.2573 45.968 22.6813 46.108 22.0493 46.108ZM22.0493 44.92C22.4013 44.92 22.7293 44.836 23.0333 44.668C23.3453 44.5 23.5973 44.248 23.7893 43.912C23.9813 43.576 24.0773 43.168 24.0773 42.688C24.0773 42.208 23.9853 41.804 23.8013 41.476C23.6173 41.14 23.3733 40.888 23.0693 40.72C22.7653 40.552 22.4373 40.468 22.0853 40.468C21.7333 40.468 21.4053 40.552 21.1013 40.72C20.8053 40.888 20.5693 41.14 20.3933 41.476C20.2173 41.804 20.1293 42.208 20.1293 42.688C20.1293 43.4 20.3093 43.952 20.6693 44.344C21.0373 44.728 21.4973 44.92 22.0493 44.92ZM30.1696 39.28C30.6896 39.28 31.1536 39.388 31.5616 39.604C31.9776 39.82 32.3016 40.14 32.5336 40.564C32.7656 40.988 32.8816 41.5 32.8816 42.1V46H31.5256V42.304C31.5256 41.712 31.3776 41.26 31.0816 40.948C30.7856 40.628 30.3816 40.468 29.8696 40.468C29.3576 40.468 28.9496 40.628 28.6456 40.948C28.3496 41.26 28.2016 41.712 28.2016 42.304V46H26.8336V39.388H28.2016V40.144C28.4256 39.872 28.7096 39.66 29.0536 39.508C29.4056 39.356 29.7776 39.28 30.1696 39.28ZM36.2226 40.504V44.164C36.2226 44.412 36.2786 44.592 36.3906 44.704C36.5106 44.808 36.7106 44.86 36.9906 44.86H37.8306V46H36.7506C36.1346 46 35.6626 45.856 35.3346 45.568C35.0066 45.28 34.8426 44.812 34.8426 44.164V40.504H34.0626V39.388H34.8426V37.744H36.2226V39.388H37.8306V40.504H36.2226ZM38.6354 42.664C38.6354 42 38.7714 41.412 39.0434 40.9C39.3234 40.388 39.6994 39.992 40.1714 39.712C40.6514 39.424 41.1794 39.28 41.7554 39.28C42.2754 39.28 42.7274 39.384 43.1114 39.592C43.5034 39.792 43.8154 40.044 44.0474 40.348V39.388H45.4274V46H44.0474V45.016C43.8154 45.328 43.4994 45.588 43.0994 45.796C42.6994 46.004 42.2434 46.108 41.7314 46.108C41.1634 46.108 40.6434 45.964 40.1714 45.676C39.6994 45.38 39.3234 44.972 39.0434 44.452C38.7714 43.924 38.6354 43.328 38.6354 42.664ZM44.0474 42.688C44.0474 42.232 43.9514 41.836 43.7594 41.5C43.5754 41.164 43.3314 40.908 43.0274 40.732C42.7234 40.556 42.3954 40.468 42.0434 40.468C41.6914 40.468 41.3634 40.556 41.0594 40.732C40.7554 40.9 40.5074 41.152 40.3154 41.488C40.1314 41.816 40.0394 42.208 40.0394 42.664C40.0394 43.12 40.1314 43.52 40.3154 43.864C40.5074 44.208 40.7554 44.472 41.0594 44.656C41.3714 44.832 41.6994 44.92 42.0434 44.92C42.3954 44.92 42.7234 44.832 43.0274 44.656C43.3314 44.48 43.5754 44.224 43.7594 43.888C43.9514 43.544 44.0474 43.144 44.0474 42.688Z" fill="#173EA5"/>
</svg>
