<svg width="56" height="56" viewBox="0 0 56 56" fill="none" xmlns="http://www.w3.org/2000/svg">
<path d="M28.0003 38.8332C33.9836 38.8332 38.8337 33.9831 38.8337 27.9998C38.8337 22.0166 33.9836 17.1665 28.0003 17.1665C22.0171 17.1665 17.167 22.0166 17.167 27.9998C17.167 33.9831 22.0171 38.8332 28.0003 38.8332Z" stroke="#808080" stroke-width="1.5" stroke-linecap="round" stroke-linejoin="round"/>
<path d="M28 31.25C28.862 31.25 29.6886 30.9076 30.2981 30.2981C30.9076 29.6886 31.25 28.862 31.25 28C31.25 27.138 30.9076 26.3114 30.2981 25.7019C29.6886 25.0924 28.862 24.75 28 24.75C27.138 24.75 26.3114 25.0924 25.7019 25.7019C25.0924 26.3114 24.75 27.138 24.75 28C24.75 28.862 25.0924 29.6886 25.7019 30.2981C26.3114 30.9076 27.138 31.25 28 31.25V31.25Z" stroke="#808080" stroke-width="1.5" stroke-linecap="round" stroke-linejoin="round"/>
<path d="M17.167 28H24.7503M31.2503 28H38.8337" stroke="#808080" stroke-width="1.5"/>
</svg>
