<svg width="56" height="56" viewBox="0 0 56 56" fill="none" xmlns="http://www.w3.org/2000/svg">
<path d="M17.1663 19.9999C17.1663 21.4225 17.4466 22.8313 17.991 24.1456C18.5354 25.46 19.3334 26.6543 20.3393 27.6602C21.3453 28.6662 22.5396 29.4642 23.8539 30.0086C25.1683 30.553 26.577 30.8332 27.9997 30.8332C29.4223 30.8332 30.8311 30.553 32.1454 30.0086C33.4598 29.4642 34.654 28.6662 35.66 27.6602C36.666 26.6543 37.4639 25.46 38.0084 24.1456C38.5528 22.8313 38.833 21.4225 38.833 19.9999L27.9997 19.9999H17.1663Z" fill="white"/>
<path d="M38.8337 19.9998C38.8337 18.5772 38.5534 17.1685 38.009 15.8541C37.4646 14.5397 36.6666 13.3455 35.6607 12.3395C34.6547 11.3335 33.4604 10.5356 32.1461 9.99113C30.8317 9.44671 29.423 9.16649 28.0003 9.16649C26.5777 9.16649 25.1689 9.44671 23.8546 9.99113C22.5402 10.5356 21.346 11.3335 20.34 12.3395C19.334 13.3455 18.5361 14.5397 17.9916 15.8541C17.4472 17.1685 17.167 18.5772 17.167 19.9998L28.0003 19.9998H38.8337Z" fill="#CD3131"/>
<circle cx="28" cy="19.9996" r="3.25" fill="white"/>
<path d="M28.0003 30.8332C33.9836 30.8332 38.8337 25.9831 38.8337 19.9998C38.8337 14.0166 33.9836 9.16649 28.0003 9.16649C22.0171 9.16649 17.167 14.0166 17.167 19.9998C17.167 25.9831 22.0171 30.8332 28.0003 30.8332Z" stroke="#173EA5" stroke-width="1.5" stroke-linecap="round" stroke-linejoin="round"/>
<path d="M28 23.2499C28.862 23.2499 29.6886 22.9075 30.2981 22.298C30.9076 21.6885 31.25 20.8618 31.25 19.9999C31.25 19.1379 30.9076 18.3113 30.2981 17.7018C29.6886 17.0923 28.862 16.7499 28 16.7499C27.138 16.7499 26.3114 17.0923 25.7019 17.7018C25.0924 18.3113 24.75 19.1379 24.75 19.9999C24.75 20.8618 25.0924 21.6885 25.7019 22.298C26.3114 22.9075 27.138 23.2499 28 23.2499V23.2499Z" stroke="#173EA5" stroke-width="1.5" stroke-linecap="round" stroke-linejoin="round"/>
<path d="M17.167 19.9997H24.7503M31.2503 19.9997H38.8337" stroke="#173EA5" stroke-width="1.5"/>
<path d="M9.232 38.144C9.232 38.568 9.132 38.968 8.932 39.344C8.732 39.72 8.412 40.028 7.972 40.268C7.532 40.5 6.968 40.616 6.28 40.616H4.768V44H3.4V35.66H6.28C6.92 35.66 7.46 35.772 7.9 35.996C8.348 36.212 8.68 36.508 8.896 36.884C9.12 37.26 9.232 37.68 9.232 38.144ZM6.28 39.5C6.8 39.5 7.188 39.384 7.444 39.152C7.7 38.912 7.828 38.576 7.828 38.144C7.828 37.232 7.312 36.776 6.28 36.776H4.768V39.5H6.28ZM13.4047 44.108C12.7807 44.108 12.2167 43.968 11.7127 43.688C11.2087 43.4 10.8127 43 10.5247 42.488C10.2367 41.968 10.0927 41.368 10.0927 40.688C10.0927 40.016 10.2407 39.42 10.5367 38.9C10.8327 38.38 11.2367 37.98 11.7487 37.7C12.2607 37.42 12.8327 37.28 13.4647 37.28C14.0967 37.28 14.6687 37.42 15.1807 37.7C15.6927 37.98 16.0967 38.38 16.3927 38.9C16.6887 39.42 16.8367 40.016 16.8367 40.688C16.8367 41.36 16.6847 41.956 16.3807 42.476C16.0767 42.996 15.6607 43.4 15.1327 43.688C14.6127 43.968 14.0367 44.108 13.4047 44.108ZM13.4047 42.92C13.7567 42.92 14.0847 42.836 14.3887 42.668C14.7007 42.5 14.9527 42.248 15.1447 41.912C15.3367 41.576 15.4327 41.168 15.4327 40.688C15.4327 40.208 15.3407 39.804 15.1567 39.476C14.9727 39.14 14.7287 38.888 14.4247 38.72C14.1207 38.552 13.7927 38.468 13.4407 38.468C13.0887 38.468 12.7607 38.552 12.4567 38.72C12.1607 38.888 11.9247 39.14 11.7487 39.476C11.5727 39.804 11.4847 40.208 11.4847 40.688C11.4847 41.4 11.6647 41.952 12.0247 42.344C12.3927 42.728 12.8527 42.92 13.4047 42.92ZM20.8051 40.7L23.8531 44H22.0051L19.5571 41.156V44H18.1891V35.12H19.5571V40.28L21.9571 37.388H23.8531L20.8051 40.7ZM30.8936 40.532C30.8936 40.78 30.8776 41.004 30.8456 41.204H25.7936C25.8336 41.732 26.0296 42.156 26.3816 42.476C26.7336 42.796 27.1656 42.956 27.6776 42.956C28.4136 42.956 28.9336 42.648 29.2376 42.032H30.7136C30.5136 42.64 30.1496 43.14 29.6216 43.532C29.1016 43.916 28.4536 44.108 27.6776 44.108C27.0456 44.108 26.4776 43.968 25.9736 43.688C25.4776 43.4 25.0856 43 24.7976 42.488C24.5176 41.968 24.3776 41.368 24.3776 40.688C24.3776 40.008 24.5136 39.412 24.7856 38.9C25.0656 38.38 25.4536 37.98 25.9496 37.7C26.4536 37.42 27.0296 37.28 27.6776 37.28C28.3016 37.28 28.8576 37.416 29.3456 37.688C29.8336 37.96 30.2136 38.344 30.4856 38.84C30.7576 39.328 30.8936 39.892 30.8936 40.532ZM29.4656 40.1C29.4576 39.596 29.2776 39.192 28.9256 38.888C28.5736 38.584 28.1376 38.432 27.6176 38.432C27.1456 38.432 26.7416 38.584 26.4056 38.888C26.0696 39.184 25.8696 39.588 25.8056 40.1H29.4656ZM31.7838 40.664C31.7838 40 31.9198 39.412 32.1918 38.9C32.4718 38.388 32.8478 37.992 33.3198 37.712C33.7998 37.424 34.3318 37.28 34.9158 37.28C35.3478 37.28 35.7718 37.376 36.1878 37.568C36.6118 37.752 36.9478 38 37.1958 38.312V35.12H38.5758V44H37.1958V43.004C36.9718 43.324 36.6598 43.588 36.2598 43.796C35.8678 44.004 35.4158 44.108 34.9038 44.108C34.3278 44.108 33.7998 43.964 33.3198 43.676C32.8478 43.38 32.4718 42.972 32.1918 42.452C31.9198 41.924 31.7838 41.328 31.7838 40.664ZM37.1958 40.688C37.1958 40.232 37.0998 39.836 36.9078 39.5C36.7238 39.164 36.4798 38.908 36.1758 38.732C35.8718 38.556 35.5438 38.468 35.1918 38.468C34.8398 38.468 34.5118 38.556 34.2078 38.732C33.9038 38.9 33.6558 39.152 33.4638 39.488C33.2798 39.816 33.1878 40.208 33.1878 40.664C33.1878 41.12 33.2798 41.52 33.4638 41.864C33.6558 42.208 33.9038 42.472 34.2078 42.656C34.5198 42.832 34.8478 42.92 35.1918 42.92C35.5438 42.92 35.8718 42.832 36.1758 42.656C36.4798 42.48 36.7238 42.224 36.9078 41.888C37.0998 41.544 37.1958 41.144 37.1958 40.688ZM46.4327 40.532C46.4327 40.78 46.4167 41.004 46.3847 41.204H41.3327C41.3727 41.732 41.5687 42.156 41.9207 42.476C42.2727 42.796 42.7047 42.956 43.2167 42.956C43.9527 42.956 44.4727 42.648 44.7767 42.032H46.2527C46.0527 42.64 45.6887 43.14 45.1607 43.532C44.6407 43.916 43.9927 44.108 43.2167 44.108C42.5847 44.108 42.0167 43.968 41.5127 43.688C41.0167 43.4 40.6247 43 40.3367 42.488C40.0567 41.968 39.9167 41.368 39.9167 40.688C39.9167 40.008 40.0527 39.412 40.3247 38.9C40.6047 38.38 40.9927 37.98 41.4887 37.7C41.9927 37.42 42.5687 37.28 43.2167 37.28C43.8407 37.28 44.3967 37.416 44.8847 37.688C45.3727 37.96 45.7527 38.344 46.0247 38.84C46.2967 39.328 46.4327 39.892 46.4327 40.532ZM45.0047 40.1C44.9967 39.596 44.8167 39.192 44.4647 38.888C44.1127 38.584 43.6767 38.432 43.1567 38.432C42.6847 38.432 42.2807 38.584 41.9447 38.888C41.6087 39.184 41.4087 39.588 41.3447 40.1H45.0047ZM44.4167 35.612L41.7647 36.92V35.912L44.4167 34.448V35.612ZM50.6109 40.652L52.7469 44H51.1989L49.7709 41.756L48.4269 44H46.9989L49.1349 40.748L46.9989 37.388H48.5469L49.9749 39.632L51.3189 37.388H52.7469L50.6109 40.652Z" fill="#173EA5"/>
</svg>
