<svg width="56" height="56" viewBox="0 0 56 56" fill="none" xmlns="http://www.w3.org/2000/svg">
<path d="M37 26C37 33 28 39 28 39C28 39 19 33 19 26C19 23.6131 19.9482 21.3239 21.636 19.636C23.3239 17.9482 25.6131 17 28 17C30.3869 17 32.6761 17.9482 34.364 19.636C36.0518 21.3239 37 23.6131 37 26Z" stroke="#808080" stroke-width="1.5" stroke-linecap="round" stroke-linejoin="round"/>
<path d="M28 29C28.7957 29 29.5587 28.6839 30.1213 28.1213C30.6839 27.5587 31 26.7956 31 26C31 25.2044 30.6839 24.4413 30.1213 23.8787C29.5587 23.3161 28.7957 23 28 23C27.2044 23 26.4413 23.3161 25.8787 23.8787C25.3161 24.4413 25 25.2044 25 26C25 26.7956 25.3161 27.5587 25.8787 28.1213C26.4413 28.6839 27.2044 29 28 29Z" fill="white" stroke="#808080" stroke-width="1.5" stroke-linecap="round" stroke-linejoin="round"/>
<path d="M19 26L25.3 26M30.7 26L37 26" stroke="#808080" stroke-width="1.5"/>
</svg>
