<?xml version="1.0" encoding="utf-8"?>
<svg viewBox="195.582 128.19 196.137 61.08" xmlns="http://www.w3.org/2000/svg">
  <path d="M 195.582 141.7 C 197.567 141.044 199.43 140.437 201.169 139.879 C 202.924 139.322 204.77 138.797 206.706 138.304 C 208.642 137.796 210.496 137.394 212.267 137.099 C 213.629 136.869 215.024 136.754 216.451 136.754 C 218.83 136.754 220.389 136.82 221.127 136.951 C 222.242 137.164 223.292 137.509 224.277 137.984 C 225.278 138.46 226.164 139.1 226.935 139.904 C 227.722 140.691 228.362 141.627 228.854 142.709 C 229.051 143.152 229.149 143.62 229.149 144.112 C 229.149 145.95 228.14 148.214 226.123 150.904 C 224.121 153.595 222.103 155.941 220.069 157.943 C 218.051 159.944 216.541 161.38 215.54 162.249 L 219.97 177.778 L 213.523 182.429 L 202.227 150.166 C 202.194 150.166 202.038 150.322 201.759 150.634 C 201.48 150.945 201.111 151.356 200.652 151.864 C 200.209 152.356 199.93 152.66 199.815 152.775 C 199.766 152.775 199.602 152.422 199.323 151.716 C 199.06 151.011 198.699 150.035 198.24 148.788 C 197.797 147.525 197.297 146.13 196.739 144.604 C 196.165 143.062 195.779 142.094 195.582 141.7 Z M 211.505 148.542 L 213.523 155.802 C 214.54 154.768 215.803 153.357 217.312 151.569 C 218.822 149.781 219.576 148.484 219.576 147.681 C 219.576 147.369 219.445 147.188 219.183 147.139 C 218.444 146.975 217.714 146.893 216.992 146.893 C 214.827 146.893 212.998 147.443 211.505 148.542 Z M 247.631 154.153 C 248.796 154.776 249.739 155.621 250.461 156.688 C 251.199 157.738 251.733 158.927 252.061 160.256 C 252.405 161.568 252.578 162.938 252.578 164.366 C 252.578 165.547 252.479 166.687 252.282 167.786 C 252.102 168.886 251.848 169.895 251.519 170.813 C 251.191 171.732 250.806 172.511 250.363 173.151 C 249.329 174.693 248.222 176.022 247.04 177.138 C 245.859 178.254 244.653 179.156 243.423 179.845 C 242.192 180.518 240.97 181.01 239.756 181.322 C 238.558 181.65 237.369 181.814 236.188 181.814 C 234.793 181.814 233.464 181.592 232.201 181.149 C 230.954 180.723 229.888 180.157 229.002 179.451 C 227.542 178.237 226.401 176.605 225.581 174.554 C 224.761 172.487 224.351 170.305 224.351 168.008 C 224.351 164.054 225.491 160.863 227.771 158.435 C 229.724 156.351 231.742 154.784 233.825 153.734 C 235.909 152.668 238.042 152.135 240.224 152.135 C 241.503 152.135 242.734 152.299 243.915 152.627 C 245.096 152.939 246.335 153.447 247.631 154.153 Z M 246.179 158.287 C 245.9 159.534 245.293 160.633 244.358 161.585 C 243.439 162.536 242.537 163.012 241.651 163.012 C 241.208 163.012 240.814 162.897 240.47 162.668 C 239.978 162.274 239.731 161.585 239.731 160.6 C 239.731 159.846 239.978 159.099 240.47 158.361 C 240.978 157.623 241.774 157.04 242.857 156.614 C 241.774 156.614 240.724 156.819 239.707 157.229 C 238.706 157.639 237.845 158.172 237.123 158.829 C 236.401 159.468 235.819 160.199 235.376 161.019 C 234.949 161.823 234.736 162.635 234.736 163.455 C 234.736 164.981 235.441 166.195 236.852 167.097 C 238.165 167.934 239.412 168.352 240.593 168.352 C 241.758 168.352 242.791 167.967 243.694 167.196 C 244.596 166.408 245.285 165.407 245.761 164.193 C 246.237 162.963 246.474 161.749 246.474 160.551 C 246.474 159.731 246.376 158.976 246.179 158.287 Z M 248.492 139.682 L 260.994 134.441 L 262.815 162.865 L 273.102 157.229 L 283.782 158.829 L 269.853 169.509 L 282.97 179.402 L 283.561 189.27 L 264.218 175.366 L 264.833 187.449 L 253.119 187.671 L 250.904 144.924 L 247.287 145.736 L 248.492 139.682 Z M 300.91 167.196 L 306.841 174.357 C 306.365 175.735 305.233 176.999 303.445 178.147 C 301.673 179.295 299.557 180.198 297.096 180.854 C 294.651 181.527 292.207 181.863 289.762 181.863 C 287.597 181.863 285.661 181.576 283.955 181.002 C 282.265 180.427 280.96 179.558 280.042 178.393 C 278.45 176.391 277.655 173.832 277.655 170.715 C 277.655 168.254 278.098 165.834 278.983 163.455 C 279.886 161.06 280.837 159.386 281.838 158.435 C 283.036 157.303 284.332 156.359 285.726 155.605 C 287.137 154.85 288.598 154.284 290.107 153.907 C 291.616 153.529 293.167 153.341 294.758 153.341 C 296.841 153.341 298.818 153.677 300.689 154.35 C 302.575 155.006 304.224 155.966 305.635 157.229 L 292.125 173.348 C 293.323 173.348 294.455 173.102 295.521 172.61 C 296.604 172.101 297.596 171.388 298.498 170.469 C 299.401 169.534 300.205 168.443 300.91 167.196 Z M 294.094 161.462 C 293.29 161.052 292.469 160.847 291.633 160.847 C 290.747 160.847 289.885 161.027 289.049 161.388 C 288.228 161.749 287.646 162.175 287.301 162.668 C 286.284 163.98 285.776 165.424 285.776 166.999 C 285.776 167.573 285.833 168.123 285.948 168.648 C 286.063 169.173 286.26 169.895 286.539 170.813 L 294.094 161.462 Z M 281.444 143.718 L 294.561 136.459 L 300.196 145.121 L 284.274 148.148 L 281.444 143.718 Z" style="fill: rgb(0, 0, 41);" transform="matrix(1, 0, 0, 1, 7.105427357601002e-15, 0)"/>
  <path d="M 319.761 156.712 C 318.859 156.827 317.964 157.114 317.079 157.574 C 316.209 158.033 315.462 158.574 314.839 159.198 C 314.216 159.821 313.723 160.51 313.362 161.265 C 313.018 162.003 312.846 162.733 312.846 163.455 C 312.846 164.948 313.551 166.162 314.962 167.097 C 316.209 167.934 317.472 168.352 318.752 168.352 C 318.998 168.352 319.334 168.32 319.761 168.254 L 319.761 163.012 C 319.318 163.012 318.924 162.897 318.58 162.668 C 318.087 162.274 317.841 161.519 317.841 160.404 C 317.841 158.796 318.481 157.565 319.761 156.712 Z M 319.539 132.816 L 329.826 128.19 L 330.441 161.511 C 330.573 162.364 330.638 163.332 330.638 164.415 C 330.638 165.366 330.605 166.072 330.54 166.531 L 330.835 181.617 L 319.761 182.207 L 319.761 180.706 C 317.956 181.445 316.135 181.814 314.298 181.814 C 312.887 181.814 311.558 181.6 310.311 181.174 C 309.08 180.747 308.014 180.173 307.112 179.451 C 305.652 178.237 304.511 176.605 303.691 174.554 C 302.871 172.487 302.461 170.305 302.461 168.008 C 302.461 164.054 303.601 160.863 305.881 158.435 C 307.85 156.368 309.876 154.801 311.96 153.734 C 314.06 152.668 316.201 152.135 318.383 152.135 C 318.99 152.135 319.449 152.151 319.761 152.184 L 319.539 132.816 Z M 351.31 167.196 L 357.241 174.357 C 356.765 175.735 355.633 176.999 353.845 178.147 C 352.073 179.295 349.957 180.198 347.496 180.854 C 345.051 181.527 342.607 181.863 340.162 181.863 C 337.996 181.863 336.061 181.576 334.354 181.002 C 332.664 180.427 331.36 179.558 330.441 178.393 C 328.85 176.391 328.054 173.832 328.054 170.715 C 328.054 168.254 328.497 165.834 329.383 163.455 C 330.286 161.06 331.237 159.386 332.238 158.435 C 333.436 157.303 334.732 156.359 336.126 155.605 C 337.537 154.85 338.997 154.284 340.507 153.907 C 342.016 153.529 343.566 153.341 345.158 153.341 C 347.241 153.341 349.218 153.677 351.089 154.35 C 352.975 155.006 354.624 155.966 356.035 157.229 L 342.525 173.348 C 343.722 173.348 344.854 173.102 345.921 172.61 C 347.004 172.101 347.996 171.388 348.898 170.469 C 349.801 169.534 350.605 168.443 351.31 167.196 Z M 344.493 161.462 C 343.689 161.052 342.869 160.847 342.032 160.847 C 341.146 160.847 340.285 161.027 339.448 161.388 C 338.628 161.749 338.046 162.175 337.701 162.668 C 336.684 163.98 336.175 165.424 336.175 166.999 C 336.175 167.573 336.233 168.123 336.348 168.648 C 336.462 169.173 336.659 169.895 336.938 170.813 L 344.493 161.462 Z M 371.465 176.129 L 365.51 183.832 L 352.811 184.225 L 365.116 167.959 L 351.212 149.969 L 364.698 150.56 L 371.465 159.493 L 378.208 150.56 L 391.719 149.969 L 377.814 167.959 L 390.119 184.225 L 377.396 183.832 L 371.465 176.129 Z" fill="#CD3131" transform="matrix(1, 0, 0, 1, 7.105427357601002e-15, 0)"/>
</svg>